<svg width="254" height="254" viewBox="0 0 254 254" fill="none" xmlns="http://www.w3.org/2000/svg">
<path d="M127 3.46399C195.228 3.46399 250.536 58.7724 250.536 127C250.536 195.228 195.228 250.536 127 250.536C58.7724 250.536 3.46399 195.228 3.46399 127C3.46399 58.7724 58.7724 3.46399 127 3.46399Z" fill="#FAF0DA" stroke="#383C44" stroke-width="5"/>
<path d="M133.781 184.313L132.261 182.328C131.989 182.536 131.809 182.671 131.633 182.785C131.426 182.915 131.191 183.038 130.854 183.204L130.848 183.206C130.723 183.269 130.627 183.317 130.55 183.356C130.392 183.436 130.311 183.477 130.203 183.52C129.947 183.62 129.667 183.699 129.239 183.814L129.239 183.814C129.141 183.84 129.052 183.866 128.981 183.888C128.943 183.899 128.915 183.907 128.891 183.915C128.859 183.924 128.833 183.932 128.798 183.942C128.695 183.973 128.66 183.98 128.649 183.982L128.641 183.984C128.073 184.093 127.528 184.151 127.003 184.151C126.478 184.151 125.932 184.093 125.364 183.984L125.352 183.981C125.34 183.979 125.305 183.972 125.203 183.942C125.144 183.924 125.107 183.913 125.022 183.888C124.95 183.866 124.861 183.84 124.764 183.814C124.331 183.697 124.055 183.62 123.806 183.521C123.696 183.478 123.615 183.436 123.455 183.356C123.378 183.317 123.283 183.269 123.157 183.206L123.152 183.204C122.806 183.034 122.571 182.912 122.367 182.783L122.358 182.777C122.206 182.681 122.06 182.57 121.791 182.363L121.745 182.328L121.734 182.32C121.639 182.247 121.551 182.187 121.484 182.141C121.45 182.117 121.418 182.096 121.392 182.078L121.324 182.033C121.292 182.011 121.274 181.999 121.265 181.993L78.7167 144.862L78.7161 144.861C75.0929 141.702 74.7178 136.205 77.88 132.586C81.0461 128.962 86.5424 128.589 90.1608 131.748L90.1614 131.749L114.153 152.685L118.297 156.301V150.801V78.5573C118.297 73.7511 122.194 69.8541 127 69.8541C131.806 69.8541 135.703 73.7511 135.703 78.5573V150.801V156.301L139.847 152.685L163.838 131.747C167.462 128.586 172.958 128.959 176.119 132.582C179.279 136.206 178.905 141.704 175.284 144.861L175.283 144.862L132.737 181.993C132.729 181.999 132.71 182.012 132.676 182.035C132.663 182.044 132.631 182.065 132.596 182.089C132.568 182.108 132.538 182.129 132.513 182.146C132.444 182.193 132.355 182.256 132.258 182.33L133.781 184.313ZM133.781 184.313C133.86 184.252 133.942 184.197 134.024 184.141C134.142 184.062 134.26 183.983 134.369 183.887L131.957 185.447C132.305 185.276 132.646 185.103 132.977 184.892C133.257 184.713 133.517 184.514 133.781 184.313Z" fill="#383C44" stroke="#383C44" stroke-width="5"/>
</svg>
