<svg width="254" height="254" viewBox="0 0 254 254" fill="none" xmlns="http://www.w3.org/2000/svg">
<path d="M127 0.963989C196.608 0.963989 253.036 57.3917 253.036 127C253.036 196.608 196.608 253.036 127 253.036C57.3917 253.036 0.963989 196.608 0.963989 127C0.963989 57.3917 57.3917 0.963989 127 0.963989Z" fill="#383C44"/>
<path d="M77.0729 146.746L119.634 183.887C119.819 184.049 120.029 184.164 120.225 184.313C120.488 184.514 120.746 184.716 121.026 184.892C121.356 185.103 121.701 185.276 122.048 185.447C122.325 185.584 122.594 185.73 122.883 185.845C123.286 186.004 123.701 186.116 124.115 186.228C124.376 186.299 124.622 186.388 124.891 186.439C125.588 186.573 126.294 186.651 127.003 186.651C127.711 186.651 128.417 186.573 129.115 186.439C129.381 186.388 129.627 186.299 129.888 186.228C130.305 186.116 130.717 186.004 131.123 185.845C131.411 185.73 131.68 185.584 131.957 185.447C132.305 185.276 132.646 185.103 132.977 184.892C133.257 184.713 133.517 184.514 133.781 184.313C133.974 184.164 134.184 184.049 134.369 183.887L176.927 146.746C181.59 142.679 182.069 135.601 178.003 130.938C173.933 126.275 166.858 125.796 162.195 129.862L138.203 150.801V78.5573C138.203 72.3704 133.187 67.3541 127 67.3541C120.813 67.3541 115.797 72.3704 115.797 78.5573V150.801L91.8051 129.865C87.1446 125.796 80.0698 126.28 75.9974 130.941C71.9251 135.601 72.4096 142.679 77.0729 146.746Z" fill="#FAF0DA"/>
</svg>
