<svg width="246" height="152" viewBox="0 0 246 152" fill="none" xmlns="http://www.w3.org/2000/svg">
<path d="M223.336 101.384L223.199 77.8569L245.827 65.1949L122.576 0.194946L0 66.4949L49.144 94.7109L49.242 111.477L49.252 112.816L49.701 112.601C49.183 113.304 48.851 114.027 48.861 114.75C48.9 122.996 82.187 129.522 123.271 129.298C164.335 129.083 197.573 122.176 197.544 113.949C197.544 113.226 197.163 112.523 196.655 111.8L197.104 112.015V110.676L197.016 93.8419L218.325 80.5839L218.442 101.414C216.097 102.42 214.466 104.726 214.485 107.423C214.505 110.96 217.377 113.822 220.943 113.793C224.529 113.773 227.372 110.881 227.352 107.354C227.332 104.657 225.691 102.371 223.336 101.384ZM123.241 123.621C86.789 123.826 57.224 119.82 57.195 114.711C57.166 109.601 86.691 105.312 123.144 105.126C159.606 104.921 189.161 108.907 189.181 114.007C189.209 119.098 159.703 123.426 123.241 123.621ZM195.335 80.1829C190.401 74.9949 172.717 61.2969 122.909 61.5809C73.032 61.8449 55.573 75.7089 50.698 80.9749L50.669 76.0119C50.669 76.0119 64.816 54.4879 122.871 54.1849C180.896 53.8719 195.307 75.2299 195.307 75.2299L195.335 80.1829ZM215.755 115.199L213.244 151.632C221.011 139.429 227.499 143.972 227.499 143.972L227.343 115.14C218.998 118.414 215.755 115.199 215.755 115.199Z" fill="#383C44"/>
</svg>
