<svg width="512" height="448" viewBox="0 0 512 448" fill="none" xmlns="http://www.w3.org/2000/svg">
<path d="M362.667 63.893C362.667 28.672 333.995 0 298.774 0H213.227C178.006 0 149.334 28.672 149.334 63.893V85.333H128V448H384V85.333H362.667V63.893V63.893ZM320 85.333H192V63.893C192 52.181 201.515 42.666 213.227 42.666H298.774C310.486 42.666 320.001 52.181 320.001 63.893V85.333H320Z" fill="#383C44"/>
<path d="M0 149.353V383.977C0 419.262 28.736 447.998 64.021 447.998H85.333V85.3311H64.021C28.736 85.3311 0 114.067 0 149.353Z" fill="#383C44"/>
<path d="M447.979 85.3311H426.667V447.998H447.979C483.264 447.998 512 419.262 512 383.977V149.353C512 114.067 483.264 85.3311 447.979 85.3311Z" fill="#383C44"/>
</svg>
